<?xml version="1.0" encoding="UTF-8"?>
<svg xmlns="http://www.w3.org/2000/svg" xmlns:xlink="http://www.w3.org/1999/xlink" width="800pt" height="600pt" viewBox="0 0 800 600" version="1.1">
<g id="surface1">
<path style=" stroke:none;fill-rule:nonzero;fill:rgb(95.698547%,50.59967%,12.89978%);fill-opacity:1;" d="M 345.96875 277.234375 C 345.96875 277.234375 324.75 241.820313 352.523438 219.390625 C 352.523438 219.390625 359.082031 225.292969 367.183594 222.933594 C 367.183594 222.933594 375.671875 222.144531 381.457031 210.339844 C 381.457031 210.339844 384.929688 202.074219 404.601563 204.4375 C 404.601563 204.4375 409.617188 203.257813 427.746094 208.371094 C 427.746094 208.371094 393.027344 198.929688 376.441406 246.148438 C 376.441406 246.148438 353.683594 211.128906 345.96875 277.234375 "/>
<path style=" stroke:none;fill-rule:nonzero;fill:rgb(95.698547%,50.59967%,12.89978%);fill-opacity:1;" d="M 376.441406 207.78125 C 376.441406 214.191406 371.089844 219.390625 364.484375 219.390625 C 357.878906 219.390625 352.523438 214.191406 352.523438 207.78125 C 352.523438 201.371094 357.878906 196.175781 364.484375 196.175781 C 371.089844 196.175781 376.441406 201.371094 376.441406 207.78125 "/>
<path style=" stroke:none;fill-rule:nonzero;fill:rgb(75.698853%,11.399841%,41.19873%);fill-opacity:1;" d="M 382.339844 239.210938 C 382.339844 239.210938 398.105469 200.949219 432.179688 210.820313 C 432.179688 210.820313 431.320313 219.699219 437.933594 225.023438 C 437.933594 225.023438 443.519531 231.585938 456.292969 229.472656 C 456.292969 229.472656 464.894531 227.515625 474.519531 245.175781 C 474.519531 245.175781 478.390625 248.636719 484.921875 266.632813 C 484.921875 266.632813 472.132813 232.378906 424.882813 246.257813 C 424.882813 246.257813 439.429688 206.949219 382.339844 239.210938 "/>
<path style=" stroke:none;fill-rule:nonzero;fill:rgb(75.698853%,11.399841%,41.19873%);fill-opacity:1;" d="M 455.394531 223.828125 C 450.296875 227.574219 443.035156 226.183594 439.171875 220.71875 C 435.308594 215.253906 436.316406 207.78125 441.414063 204.035156 C 446.511719 200.285156 453.777344 201.679688 457.636719 207.144531 C 461.5 212.609375 460.496094 220.082031 455.394531 223.828125 "/>
<path style=" stroke:none;fill-rule:nonzero;fill:rgb(49.398804%,28.199768%,60.798645%);fill-opacity:1;" d="M 428.300781 247.773438 C 428.300781 247.773438 466.675781 233.976563 482.40625 266.355469 C 482.40625 266.355469 475.378906 271.671875 475.957031 280.242188 C 475.957031 280.242188 474.949219 288.875 485.0625 297.105469 C 485.0625 297.105469 492.265625 302.289063 485.90625 321.429688 C 485.90625 321.429688 485.992188 326.675781 477.316406 343.703125 C 477.316406 343.703125 493.59375 311.027344 451.769531 284.648438 C 451.769531 284.648438 490.085938 269.230469 428.300781 247.773438 "/>
<path style=" stroke:none;fill-rule:nonzero;fill:rgb(49.398804%,28.199768%,60.798645%);fill-opacity:1;" d="M 488.558594 292.632813 C 482.410156 291.296875 478.539063 284.875 479.914063 278.285156 C 481.289063 271.695313 487.386719 267.4375 493.535156 268.769531 C 499.679688 270.105469 503.550781 276.53125 502.175781 283.117188 C 500.800781 289.707031 494.703125 293.96875 488.558594 292.632813 "/>
<path style=" stroke:none;fill-rule:nonzero;fill:rgb(50.999451%,75.299072%,25.498962%);fill-opacity:1;" d="M 455.390625 289.167969 C 455.390625 289.167969 489.59375 311.648438 474.148438 344.167969 C 474.148438 344.167969 465.726563 341.761719 459.4375 347.480469 C 459.4375 347.480469 452.128906 351.957031 451.953125 365.152344 C 451.953125 365.152344 452.351563 374.132813 433.625 380.734375 C 433.625 380.734375 429.613281 384.023438 411.109375 387.457031 C 411.109375 387.457031 446.398438 380.558594 441.199219 330.683594 C 441.199219 330.683594 476.625 352.125 455.390625 289.167969 "/>
<path style=" stroke:none;fill-rule:nonzero;fill:rgb(50.999451%,75.299072%,25.498962%);fill-opacity:1;" d="M 457.558594 365.234375 C 454.824219 359.457031 457.429688 352.402344 463.378906 349.472656 C 469.328125 346.542969 476.363281 348.847656 479.09375 354.621094 C 481.828125 360.394531 479.222656 367.449219 473.277344 370.378906 C 467.328125 373.308594 460.292969 371.003906 457.558594 365.234375 "/>
<path style=" stroke:none;fill-rule:nonzero;fill:rgb(15.299988%,72.898865%,91.398621%);fill-opacity:1;" d="M 439.582031 336.386719 C 439.582031 336.386719 443.9375 377.648438 409.433594 385.832031 C 409.433594 385.832031 405.976563 377.640625 397.664063 376.246094 C 397.664063 376.246094 389.65625 373.257813 379.484375 381.414063 C 379.484375 381.414063 372.886719 387.375 356.085938 376.664063 C 356.085938 376.664063 351.054688 375.550781 336.800781 363.027344 C 336.800781 363.027344 364.242188 386.691406 399.011719 351.222656 C 399.011719 351.222656 404.929688 392.800781 439.582031 336.386719 "/>
<path style=" stroke:none;fill-rule:nonzero;fill:rgb(15.299988%,72.898865%,91.398621%);fill-opacity:1;" d="M 382.945313 385.910156 C 385.632813 380.113281 392.648438 377.746094 398.621094 380.625 C 404.59375 383.503906 407.257813 390.53125 404.574219 396.328125 C 401.890625 402.125 394.871094 404.496094 388.902344 401.617188 C 382.929688 398.738281 380.265625 391.707031 382.945313 385.910156 "/>
<path style=" stroke:none;fill-rule:nonzero;fill:rgb(81.599426%,12.5%,17.999268%);fill-opacity:1;" d="M 395.445313 352.652344 C 395.445313 352.652344 367.398438 382.71875 338.972656 361.160156 C 338.972656 361.160156 342.863281 353.171875 338.535156 345.800781 C 338.535156 345.800781 335.589844 337.640625 322.914063 334.996094 C 322.914063 334.996094 314.191406 333.710938 311.339844 313.714844 C 311.339844 313.714844 308.921875 309.082031 309.074219 289.890625 C 309.074219 289.890625 309.117188 326.546875 358.121094 330.671875 C 358.121094 330.671875 330.84375 362.15625 395.445313 352.652344 "/>
<path style=" stroke:none;fill-rule:nonzero;fill:rgb(81.599426%,12.5%,17.999268%);fill-opacity:1;" d="M 321.789063 340.597656 C 327.863281 338.9375 334.171875 342.867188 335.878906 349.378906 C 337.585938 355.886719 334.050781 362.503906 327.980469 364.160156 C 321.910156 365.820313 315.601563 361.890625 313.894531 355.382813 C 312.183594 348.875 315.71875 342.257813 321.789063 340.597656 "/>
<path style=" stroke:none;fill-rule:nonzero;fill:rgb(19.599915%,49.398804%,75.299072%);fill-opacity:1;" d="M 353.140625 327.058594 C 353.140625 327.058594 312.675781 322.742188 312.078125 286.609375 C 312.078125 286.609375 320.65625 284.878906 323.738281 276.882813 C 323.738281 276.882813 328.28125 269.527344 322.601563 257.667969 C 322.601563 257.667969 318.277344 249.835938 332.066406 235.328125 C 332.066406 235.328125 334.191406 230.546875 349.1875 218.960938 C 349.1875 218.960938 320.746094 241.359375 347.445313 283.484375 C 347.445313 283.484375 306.34375 280.652344 353.140625 327.058594 "/>
<path style=" stroke:none;fill-rule:nonzero;fill:rgb(19.599915%,49.398804%,75.299072%);fill-opacity:1;" d="M 317.566406 260.179688 C 322.558594 264.074219 323.355469 271.570313 319.339844 276.921875 C 315.328125 282.273438 308.03125 283.453125 303.039063 279.558594 C 298.046875 275.664063 297.25 268.167969 301.261719 262.816406 C 305.273438 257.464844 312.570313 256.285156 317.566406 260.179688 "/>
</g>
</svg>
